<svg xmlns="http://www.w3.org/2000/svg" viewBox="0 0 1200 650">
<defs><linearGradient id="night" x2="0" y2="1"><stop stop-color="#14132e"/><stop offset=".6" stop-color="#4f436d"/><stop offset="1" stop-color="#998390"/></linearGradient><radialGradient id="halo"><stop stop-color="#e5dbff" stop-opacity=".3"/><stop offset="1" stop-color="#e5dbff" stop-opacity="0"/></radialGradient><linearGradient id="stone" x2="0" y2="1"><stop stop-color="#55516e"/><stop offset="1" stop-color="#25293e"/></linearGradient><linearGradient id="path" x2="0" y2="1"><stop stop-color="#9b8d9f"/><stop offset="1" stop-color="#353348"/></linearGradient></defs>
<path fill="url(#night)" d="M0 0h1200v650H0z"/><circle cx="728" cy="162" r="174" fill="url(#halo)"/><circle cx="728" cy="162" r="59" fill="#eee6de"/><circle cx="749" cy="147" r="49" fill="#ddd5e6" opacity=".4"/>
<g fill="#f6eafa" opacity=".7"><circle cx="308" cy="103" r="2"/><circle cx="504" cy="54" r="1.5"/><circle cx="860" cy="64" r="2"/><circle cx="934" cy="190" r="1.4"/><circle cx="1103" cy="93" r="2"/><circle cx="161" cy="212" r="2"/></g>
<path d="M0 400 138 285 260 379 383 251 534 391 667 304 846 376 1008 249 1200 388v262H0Z" fill="#302e4a" opacity=".7"/>
<g fill="#26283e"><path d="M407 422V234h53v-91l31-51 31 51v91h42v-63h64v-32l33-45 32 45v103h43v-58l32-48 32 48v58h32v189Z"/><path d="m455 146 36-70 36 70Zm168-7 38-61 38 61Zm114 48 30-67 35 67Z" fill="#1b2034"/></g>
<g fill="#d9bd90" opacity=".65"><path d="M486 180h10v26h-10zm173 25h10v26h-10zm102 20h10v25h-10zM573 284h10v25h-10zm133 22h10v28h-10z"/></g>
<path d="M0 650 433 409h332l435 241Z" fill="url(#path)"/><path d="m492 650 67-241m166 241-29-241M225 556h804M347 491h552M412 450h414" stroke="#c8bbc2" opacity=".25" fill="none" stroke-width="3"/>
<g fill="url(#stone)"><path d="M0 0h153v52h56v43h-36v290h47v50H0Zm1200 0h-158v53h-62v43h39v289h-52v50h253Z"/><path d="M181 82h110v32h-20v274h23v43H159v-43h32V114h-10Zm727 0h107v33h-12v270h31v46H891v-46h28V115h-11Z"/></g>
<path d="M152 77Q600-203 1044 77M266 105Q598-89 922 105" stroke="#76708a" stroke-width="18" fill="none"/><path d="M152 77Q600-203 1044 77" stroke="#34334d" stroke-width="55" fill="none"/>
<path d="m0 650 82-161 47 31 70-96 51 103-35 123Zm1200 0v650h-230l29-120 54 25 54-133 43 74Z" fill="#151e2f"/>
<g fill="#809b9b" opacity=".35"><path d="m169 426 21-65-3-76 25-15-9 81 19 43-19 58Zm829-10-10-72 22-68-5 85 17 53Z"/></g>
<path d="M0 490q320-58 576-10t624-25v65q-340-26-604-2T0 538Z" fill="#d0c7e0" opacity=".07"/>
</svg>
